<svg width="25" height="25" viewBox="0 0 25 25" fill="none" xmlns="http://www.w3.org/2000/svg">
<path d="M16.25 6.875C17.2855 6.875 18.125 7.71447 18.125 8.75V16.25C18.125 17.2855 17.2855 18.125 16.25 18.125H8.75C7.71447 18.125 6.875 17.2855 6.875 16.25V8.75C6.875 7.71447 7.71447 6.875 8.75 6.875H16.25ZM14.203 12.7012C14.1008 12.6219 13.9535 12.6404 13.8742 12.7427L11.875 15.3188L10.4988 13.6618C10.488 13.6488 10.4758 13.6369 10.4624 13.6265C10.3602 13.5471 10.213 13.5655 10.1335 13.6677L8.41921 15.8717C8.38721 15.9129 8.36984 15.9635 8.36984 16.0156C8.36984 16.1451 8.47477 16.25 8.60421 16.25H16.4062C16.457 16.25 16.5063 16.2336 16.5469 16.2031C16.6504 16.1255 16.6714 15.9786 16.5937 15.875L14.2468 12.7458C14.2343 12.729 14.2195 12.714 14.203 12.7012Z" fill="#2E2E2E"/>
</svg>
