<svg width="25" height="25" viewBox="0 0 25 25" fill="none" xmlns="http://www.w3.org/2000/svg">
<path d="M4.22461 6.86719V9H3.73096V7.42383L3.24463 7.56592V7.19092L4.1792 6.86719H4.22461Z" fill="#2E2E2E"/>
<path d="M4.61279 12.644V13H3.13916V12.6982L3.82764 11.9688C3.89209 11.8945 3.94336 11.8291 3.98145 11.7725C4.02051 11.7158 4.04883 11.6646 4.06641 11.6187C4.08398 11.5718 4.09277 11.5288 4.09277 11.4897C4.09277 11.4263 4.08252 11.3726 4.06201 11.3286C4.04248 11.2847 4.01367 11.251 3.97559 11.2275C3.9375 11.2041 3.89111 11.1924 3.83643 11.1924C3.77783 11.1924 3.72754 11.2075 3.68555 11.2378C3.64355 11.2681 3.61133 11.3101 3.58887 11.3638C3.56641 11.4165 3.55518 11.4766 3.55518 11.5439H3.09521C3.09521 11.4141 3.12646 11.2959 3.18896 11.1895C3.25146 11.082 3.33887 10.9966 3.45117 10.9331C3.56348 10.8687 3.69482 10.8364 3.84521 10.8364C3.99951 10.8364 4.12891 10.8608 4.2334 10.9097C4.33789 10.9585 4.41699 11.0283 4.4707 11.1191C4.52441 11.21 4.55127 11.3193 4.55127 11.4473C4.55127 11.5195 4.53955 11.5894 4.51611 11.6567C4.49365 11.7241 4.46094 11.791 4.41797 11.8574C4.375 11.9238 4.32324 11.9917 4.2627 12.061C4.20215 12.1294 4.13379 12.2017 4.05762 12.2778L3.73535 12.644H4.61279Z" fill="#2E2E2E"/>
<path d="M3.58008 15.7388H3.81299C3.87939 15.7388 3.93408 15.7271 3.97705 15.7036C4.021 15.6802 4.05322 15.647 4.07373 15.604C4.09521 15.561 4.10596 15.5107 4.10596 15.4531C4.10596 15.4033 4.09619 15.3589 4.07666 15.3198C4.05713 15.2808 4.02734 15.25 3.9873 15.2275C3.94824 15.2041 3.89746 15.1924 3.83496 15.1924C3.79004 15.1924 3.74707 15.2017 3.70605 15.2202C3.66602 15.2378 3.6333 15.2637 3.60791 15.2979C3.58252 15.3311 3.56982 15.3711 3.56982 15.418H3.11133C3.11133 15.2988 3.14355 15.1958 3.20801 15.1089C3.27344 15.022 3.35986 14.9551 3.46729 14.9082C3.57568 14.8604 3.69385 14.8364 3.82178 14.8364C3.96924 14.8364 4.09863 14.8599 4.20996 14.9067C4.32227 14.9526 4.40918 15.021 4.4707 15.1118C4.5332 15.2017 4.56445 15.313 4.56445 15.4458C4.56445 15.5151 4.54785 15.582 4.51465 15.6465C4.48242 15.71 4.43604 15.7666 4.37549 15.8164C4.31592 15.8652 4.24463 15.9043 4.16162 15.9336C4.07959 15.9619 3.98828 15.9761 3.8877 15.9761H3.58008V15.7388ZM3.58008 16.083V15.8501H3.8877C3.99902 15.8501 4.09863 15.8628 4.18652 15.8882C4.27441 15.9136 4.34912 15.9502 4.41064 15.998C4.47217 16.0459 4.51904 16.104 4.55127 16.1724C4.5835 16.2407 4.59961 16.3169 4.59961 16.4009C4.59961 16.5005 4.58008 16.5894 4.54102 16.6675C4.50195 16.7456 4.44727 16.8115 4.37695 16.8652C4.30664 16.9189 4.22412 16.96 4.12939 16.9883C4.03467 17.0156 3.93213 17.0293 3.82178 17.0293C3.73291 17.0293 3.64453 17.0171 3.55664 16.9927C3.46875 16.9683 3.38916 16.9312 3.31787 16.8813C3.24658 16.8306 3.18945 16.7666 3.14648 16.6895C3.10352 16.6113 3.08203 16.5186 3.08203 16.4111H3.54053C3.54053 16.4609 3.55322 16.5059 3.57861 16.5459C3.60498 16.585 3.64062 16.6162 3.68555 16.6396C3.73145 16.6621 3.78125 16.6733 3.83496 16.6733C3.89941 16.6733 3.9541 16.6616 3.99902 16.6382C4.04492 16.6138 4.07959 16.5806 4.10303 16.5386C4.12744 16.4966 4.13965 16.4482 4.13965 16.3936C4.13965 16.3193 4.12646 16.2598 4.1001 16.2148C4.07471 16.1689 4.0376 16.1357 3.98877 16.1152C3.93994 16.0938 3.88135 16.083 3.81299 16.083H3.58008Z" fill="#2E2E2E"/>
<path d="M8 16H20" stroke="#2E2E2E" stroke-width="2" stroke-linecap="round" stroke-linejoin="round"/>
<path d="M8 12H20" stroke="#2E2E2E" stroke-width="2" stroke-linecap="round" stroke-linejoin="round"/>
<path d="M8 8H20" stroke="#2E2E2E" stroke-width="2" stroke-linecap="round" stroke-linejoin="round"/>
</svg>
