<svg width="25" height="25" viewBox="0 0 25 25" fill="none" xmlns="http://www.w3.org/2000/svg">
<path d="M14.5967 7.04688H16.3057V13.6982C16.3057 14.4548 16.1416 15.0882 15.8135 15.5986C15.4854 16.109 15.0387 16.4941 14.4736 16.7539C13.9131 17.0091 13.2865 17.1367 12.5938 17.1367C11.8783 17.1367 11.2402 17.0091 10.6797 16.7539C10.1191 16.4941 9.67708 16.109 9.35352 15.5986C9.03451 15.0882 8.875 14.4548 8.875 13.6982V7.04688H10.584V13.6982C10.584 14.1768 10.666 14.571 10.8301 14.8809C10.9941 15.1862 11.2266 15.4118 11.5273 15.5576C11.8281 15.7035 12.1836 15.7764 12.5938 15.7764C13.0039 15.7764 13.3571 15.7035 13.6533 15.5576C13.9541 15.4118 14.1865 15.1862 14.3506 14.8809C14.5146 14.571 14.5967 14.1768 14.5967 13.6982V7.04688Z" fill="#2E2E2E"/>
<path d="M8 18.3672H17.1602V19.0508H8V18.3672Z" fill="#2E2E2E"/>
</svg>
