<svg width="20" height="21" viewBox="0 0 20 21" fill="none" xmlns="http://www.w3.org/2000/svg">
<path d="M9.2 3.5C7.91513 3.5 7.04169 3.50117 6.36656 3.55633C5.70893 3.61006 5.37263 3.70745 5.13803 3.82698C4.57354 4.1146 4.1146 4.57354 3.82698 5.13803C3.70745 5.37263 3.61006 5.70893 3.55633 6.36656C3.50117 7.04169 3.5 7.91513 3.5 9.2V11.8C3.5 12.3848 3.50117 12.7332 3.52227 12.9914C3.53128 13.1017 3.5423 13.1673 3.55 13.2028V13.3C3.55 14.0611 3.55 14.5636 3.61838 14.9418C3.41332 14.9096 3.24429 14.8596 3.09202 14.782C2.71569 14.5903 2.40973 14.2843 2.21799 13.908C2 13.4802 2 12.9201 2 11.8V9.2C2 6.67976 2 5.41965 2.49047 4.45704C2.9219 3.61031 3.61031 2.9219 4.45704 2.49047C5.41965 2 6.67976 2 9.2 2H11.2C12.3201 2 12.8802 2 13.308 2.21799C13.6843 2.40973 13.9903 2.71569 14.182 3.09202C14.2519 3.22915 14.2994 3.37986 14.3316 3.55824C13.9605 3.5 13.4714 3.5 12.75 3.5H9.2Z" fill="#2E2E2E"/>
<path fill-rule="evenodd" clip-rule="evenodd" d="M5.1 8.2C5.1 7.0799 5.1 6.51984 5.31799 6.09202C5.50973 5.71569 5.81569 5.40973 6.19202 5.21799C6.61984 5 7.17989 5 8.3 5H14.3C15.4201 5 15.9802 5 16.408 5.21799C16.7843 5.40973 17.0903 5.71569 17.282 6.09202C17.5 6.51984 17.5 7.0799 17.5 8.2V15.8C17.5 16.9201 17.5 17.4802 17.282 17.908C17.0903 18.2843 16.7843 18.5903 16.408 18.782C15.9802 19 15.4201 19 14.3 19H8.3C7.1799 19 6.61984 19 6.19202 18.782C5.81569 18.5903 5.50973 18.2843 5.31799 17.908C5.1 17.4802 5.1 16.9201 5.1 15.8V8.2ZM8.3 6.5H14.3C14.8848 6.5 15.2332 6.50117 15.4914 6.52227C15.6491 6.53514 15.7153 6.55214 15.7331 6.55765C15.8224 6.60469 15.8953 6.67765 15.9424 6.76693C15.9479 6.78468 15.9649 6.85094 15.9777 7.00855C15.9988 7.26681 16 7.6152 16 8.2V15.8C16 16.3848 15.9988 16.7332 15.9777 16.9914C15.9649 17.1491 15.9479 17.2153 15.9424 17.2331C15.8953 17.3224 15.8224 17.3953 15.7331 17.4424C15.7153 17.4479 15.6491 17.4649 15.4914 17.4777C15.2332 17.4988 14.8848 17.5 14.3 17.5H8.3C7.7152 17.5 7.36681 17.4988 7.10855 17.4777C6.95094 17.4649 6.88469 17.4479 6.86693 17.4424C6.77765 17.3953 6.70469 17.3224 6.65765 17.2331C6.65214 17.2153 6.63514 17.1491 6.62227 16.9914C6.60117 16.7332 6.6 16.3848 6.6 15.8V8.2C6.6 7.6152 6.60117 7.26681 6.62227 7.00855C6.63514 6.85093 6.65214 6.78468 6.65765 6.76693C6.70469 6.67765 6.77765 6.60469 6.86693 6.55765C6.88468 6.55214 6.95094 6.53514 7.10855 6.52227C7.36681 6.50117 7.7152 6.5 8.3 6.5ZM15.7383 6.55945L15.7352 6.55833C15.7374 6.55904 15.7383 6.55943 15.7383 6.55945ZM15.9405 6.76175C15.9406 6.76169 15.941 6.76264 15.9417 6.76478L15.9405 6.76175ZM15.9405 17.2383L15.9417 17.2352C15.941 17.2373 15.9406 17.2383 15.9405 17.2383ZM15.7382 17.4405C15.7383 17.4406 15.7374 17.4409 15.7353 17.4417L15.7382 17.4405ZM6.86175 17.4405L6.86478 17.4417C6.86265 17.441 6.86169 17.4406 6.86175 17.4405ZM6.65945 17.2383C6.65943 17.2383 6.65904 17.2374 6.65833 17.2352L6.65945 17.2383ZM6.65945 6.76175L6.65833 6.76478C6.65904 6.76264 6.65943 6.76169 6.65945 6.76175ZM6.86214 6.55927C6.86185 6.55938 6.86212 6.55926 6.86214 6.55927L6.86478 6.55833C6.86347 6.55877 6.8626 6.55908 6.86214 6.55927Z" fill="#2E2E2E"/>
</svg>
