<svg width="96" height="41" viewBox="0 0 96 41" fill="none" xmlns="http://www.w3.org/2000/svg">
<rect x="38" y="10" width="45" height="24" rx="3" fill="#4A4A4A"/>
<path d="M15.4604 16.2031V29H13.7642V16.2031H15.4604ZM27.6692 16.2031V29H25.9641L19.5217 19.1299V29H17.8254V16.2031H19.5217L25.9904 26.0996V16.2031H27.6692ZM31.6513 16.2031V29H29.955V16.2031H31.6513ZM39.3769 16.2031L34.0595 22.1709L31.0712 25.2734L30.79 23.4629L33.04 20.9843L37.3378 16.2031H39.3769ZM37.7421 29L33.0048 22.7597L34.0156 21.415L39.7636 29H37.7421ZM43.904 25.1328L46.444 16.2031H47.6745L46.9626 19.6748L44.2292 29H43.0075L43.904 25.1328ZM41.276 16.2031L43.2975 24.957L43.904 29H42.6911L39.5885 16.2031H41.276ZM50.9616 24.9482L52.9391 16.2031H54.6354L51.5417 29H50.3288L50.9616 24.9482ZM47.859 16.2031L50.3288 25.1328L51.2253 29H50.0036L47.3669 19.6748L46.6462 16.2031H47.859ZM63.9262 27.6201V29H57.1498V27.6201H63.9262ZM57.4926 16.2031V29H55.7963V16.2031H57.4926ZM63.0297 21.705V23.0849H57.1498V21.705H63.0297ZM63.8383 16.2031V17.5918H57.1498V16.2031H63.8383ZM73.0675 27.6201V29H66.669V27.6201H73.0675ZM67.003 16.2031V29H65.3067V16.2031H67.003ZM82.0506 27.6201V29H75.6522V27.6201H82.0506ZM75.9862 16.2031V29H74.2899V16.2031H75.9862Z" fill="#F8F8F8"/>
<path d="M10.6067 19.6053C10.2924 21.8042 6.98643 22.6263 5.37275 22.7625L4.77393 23.3148L5.01158 22.3798C7.00401 13.0971 16.1537 3.59214 20.4795 -1.56258e-05L18.4866 3.03122L17.929 4.02279C17.7059 4.41942 17.3058 5.47247 17.1337 5.94941L16.0596 8.37182C15.8082 9.16044 14.9234 11.5197 13.3949 14.6475C11.9021 17.7023 8.37791 20.4912 6.68826 21.5826C6.75009 21.5882 6.81734 21.5944 6.89036 21.6014C8.20327 21.7267 9.915 20.3229 10.6067 19.6053Z" fill="#F8F8F8"/>
<path d="M2.75688 31.6686C2.72789 31.8451 2.70105 32.0126 2.67653 32.1695C2.68796 32.036 2.71554 31.8671 2.75688 31.6686C3.20873 28.918 4.18358 23.9797 5.05296 22.819L5.69294 22.706L5.69294 22.706C4.91138 24.8713 3.16473 29.7103 2.75688 31.6686Z" fill="#F8F8F8"/>
</svg>
