<svg width="96" height="41" viewBox="0 0 96 41" fill="none" xmlns="http://www.w3.org/2000/svg">
<rect x="38" y="10" width="45" height="24" rx="3" fill="#E4E3E3"/>
<path d="M15.4606 16.2031V29H13.7643V16.2031H15.4606ZM27.6693 16.2031V29H25.9643L19.5219 19.1299V29H17.8256V16.2031H19.5219L25.9906 26.0996V16.2031H27.6693ZM31.6515 16.2031V29H29.9552V16.2031H31.6515ZM39.3771 16.2031L34.0597 22.1709L31.0714 25.2734L30.7902 23.4629L33.0402 20.9843L37.338 16.2031H39.3771ZM37.7423 29L33.005 22.7597L34.0157 21.415L39.7638 29H37.7423ZM43.9041 25.1328L46.4442 16.2031H47.6747L46.9627 19.6748L44.2293 29H43.0077L43.9041 25.1328ZM41.2762 16.2031L43.2977 24.957L43.9041 29H42.6913L39.5887 16.2031H41.2762ZM50.9618 24.9482L52.9393 16.2031H54.6356L51.5418 29H50.329L50.9618 24.9482ZM47.8592 16.2031L50.329 25.1328L51.2254 29H50.0038L47.367 19.6748L46.6463 16.2031H47.8592ZM63.9263 27.6201V29H57.15V27.6201H63.9263ZM57.4927 16.2031V29H55.7965V16.2031H57.4927ZM63.0299 21.705V23.0849H57.15V21.705H63.0299ZM63.8384 16.2031V17.5918H57.15V16.2031H63.8384ZM73.0677 27.6201V29H66.6692V27.6201H73.0677ZM67.0032 16.2031V29H65.3069V16.2031H67.0032ZM82.0508 27.6201V29H75.6524V27.6201H82.0508ZM75.9863 16.2031V29H74.29V16.2031H75.9863Z" fill="#2E2E2E"/>
<path d="M10.6068 19.6053C10.2925 21.8042 6.9865 22.6263 5.37281 22.7625L4.774 23.3148L5.01164 22.3798C7.00407 13.0971 16.1538 3.59214 20.4795 -1.56258e-05L18.4866 3.03122L17.929 4.02279C17.706 4.41942 17.3059 5.47247 17.1337 5.94941L16.0596 8.37182C15.8083 9.16044 14.9234 11.5197 13.395 14.6475C11.9022 17.7023 8.37797 20.4912 6.68833 21.5826C6.75015 21.5882 6.8174 21.5944 6.89042 21.6014C8.20333 21.7267 9.91506 20.3229 10.6068 19.6053Z" fill="#2E2E2E"/>
<path d="M2.75676 31.6686C2.72777 31.8451 2.70093 32.0126 2.67641 32.1695C2.68784 32.036 2.71542 31.8671 2.75676 31.6686C3.20861 28.918 4.18346 23.9797 5.05283 22.819L5.69282 22.706L5.69282 22.706C4.91126 24.8713 3.16461 29.7103 2.75676 31.6686Z" fill="#2E2E2E"/>
</svg>
