<svg width="27" height="27" viewBox="0 0 27 27" fill="none" xmlns="http://www.w3.org/2000/svg">
<path fill-rule="evenodd" clip-rule="evenodd" d="M23.6053 18.5357C24.0167 17.8891 24.2223 17.5658 24.1853 17.3098C24.1529 17.0856 24.0182 16.8957 23.8172 16.791C23.5879 16.6715 23.1164 16.7819 22.1736 17.0026C21.4295 17.1768 20.6539 17.2689 19.8567 17.2689C14.2648 17.2689 9.73169 12.7358 9.73169 7.14393C9.73169 6.34641 9.8239 5.57042 9.99823 4.82605C10.219 3.88323 10.3295 3.41182 10.21 3.18242C10.1053 2.9815 9.91545 2.84673 9.69125 2.81429C9.43528 2.77724 9.11194 2.98288 8.46526 3.39417C5.40526 5.34035 3.375 8.76124 3.375 12.6563C3.375 18.7142 8.28588 23.6251 14.3438 23.6251C18.2384 23.6251 21.659 21.5952 23.6053 18.5357Z" fill="#2E2E2E"/>
</svg>
