<svg width="27" height="27" viewBox="0 0 27 27" fill="none" xmlns="http://www.w3.org/2000/svg">
<path d="M12.6 3.6V0.9C12.6 0.661305 12.6948 0.432387 12.8636 0.263604C13.0324 0.0948211 13.2613 0 13.5 0C13.7387 0 13.9676 0.0948211 14.1364 0.263604C14.3052 0.432387 14.4 0.661305 14.4 0.9V3.6C14.4 3.83869 14.3052 4.06761 14.1364 4.2364C13.9676 4.40518 13.7387 4.5 13.5 4.5C13.2613 4.5 13.0324 4.40518 12.8636 4.2364C12.6948 4.06761 12.6 3.83869 12.6 3.6ZM20.7 13.5C20.7 14.924 20.2777 16.3161 19.4866 17.5001C18.6954 18.6841 17.5709 19.607 16.2553 20.1519C14.9397 20.6969 13.492 20.8395 12.0953 20.5617C10.6987 20.2838 9.41577 19.5981 8.40883 18.5912C7.40189 17.5842 6.71616 16.3013 6.43835 14.9046C6.16053 13.508 6.30312 12.0603 6.84807 10.7447C7.39302 9.42905 8.31586 8.30456 9.49989 7.51342C10.6839 6.72227 12.076 6.3 13.5 6.3C15.4089 6.30208 17.2391 7.06132 18.5889 8.41113C19.9387 9.76094 20.6979 11.5911 20.7 13.5ZM18.9 13.5C18.9 12.432 18.5833 11.3879 17.9899 10.4999C17.3966 9.61189 16.5532 8.91976 15.5665 8.51105C14.5798 8.10234 13.494 7.9954 12.4465 8.20376C11.399 8.41212 10.4368 8.92642 9.68162 9.68162C8.92642 10.4368 8.41212 11.399 8.20376 12.4465C7.9954 13.494 8.10234 14.5798 8.51105 15.5665C8.91976 16.5532 9.61189 17.3966 10.4999 17.9899C11.3879 18.5833 12.432 18.9 13.5 18.9C14.9317 18.8985 16.3044 18.3291 17.3167 17.3167C18.3291 16.3044 18.8985 14.9317 18.9 13.5ZM5.66325 6.93675C5.83213 7.10563 6.06117 7.2005 6.3 7.2005C6.53883 7.2005 6.76787 7.10563 6.93675 6.93675C7.10563 6.76787 7.2005 6.53883 7.2005 6.3C7.2005 6.06117 7.10563 5.83213 6.93675 5.66325L5.13675 3.86325C4.96787 3.69437 4.73883 3.5995 4.5 3.5995C4.26117 3.5995 4.03213 3.69437 3.86325 3.86325C3.69437 4.03213 3.5995 4.26117 3.5995 4.5C3.5995 4.73883 3.69437 4.96787 3.86325 5.13675L5.66325 6.93675ZM5.66325 20.0632L3.86325 21.8632C3.69437 22.0321 3.5995 22.2612 3.5995 22.5C3.5995 22.7388 3.69437 22.9679 3.86325 23.1367C4.03213 23.3056 4.26117 23.4005 4.5 23.4005C4.73883 23.4005 4.96787 23.3056 5.13675 23.1367L6.93675 21.3367C7.02037 21.2531 7.0867 21.1539 7.13195 21.0446C7.17721 20.9354 7.2005 20.8183 7.2005 20.7C7.2005 20.5817 7.17721 20.4646 7.13195 20.3554C7.0867 20.2461 7.02037 20.1469 6.93675 20.0632C6.85313 19.9796 6.75386 19.9133 6.64461 19.868C6.53535 19.8228 6.41826 19.7995 6.3 19.7995C6.18174 19.7995 6.06465 19.8228 5.95539 19.868C5.84614 19.9133 5.74687 19.9796 5.66325 20.0632ZM20.7 7.2C20.8182 7.20009 20.9353 7.17689 21.0446 7.13172C21.1538 7.08655 21.2531 7.0203 21.3367 6.93675L23.1367 5.13675C23.3056 4.96787 23.4005 4.73883 23.4005 4.5C23.4005 4.26117 23.3056 4.03213 23.1367 3.86325C22.9679 3.69437 22.7388 3.5995 22.5 3.5995C22.2612 3.5995 22.0321 3.69437 21.8632 3.86325L20.0632 5.66325C19.9372 5.78912 19.8514 5.94955 19.8166 6.12422C19.7818 6.2989 19.7997 6.47997 19.8678 6.64451C19.936 6.80905 20.0515 6.94966 20.1996 7.04855C20.3477 7.14743 20.5219 7.20014 20.7 7.2ZM21.3367 20.0632C21.1679 19.8944 20.9388 19.7995 20.7 19.7995C20.4612 19.7995 20.2321 19.8944 20.0632 20.0632C19.8944 20.2321 19.7995 20.4612 19.7995 20.7C19.7995 20.9388 19.8944 21.1679 20.0632 21.3367L21.8632 23.1367C21.9469 23.2204 22.0461 23.2867 22.1554 23.332C22.2646 23.3772 22.3817 23.4005 22.5 23.4005C22.6183 23.4005 22.7354 23.3772 22.8446 23.332C22.9539 23.2867 23.0531 23.2204 23.1367 23.1367C23.2204 23.0531 23.2867 22.9539 23.332 22.8446C23.3772 22.7354 23.4005 22.6183 23.4005 22.5C23.4005 22.3817 23.3772 22.2646 23.332 22.1554C23.2867 22.0461 23.2204 21.9469 23.1367 21.8632L21.3367 20.0632ZM4.5 13.5C4.5 13.2613 4.40518 13.0324 4.2364 12.8636C4.06761 12.6948 3.83869 12.6 3.6 12.6H0.9C0.661305 12.6 0.432387 12.6948 0.263604 12.8636C0.0948211 13.0324 0 13.2613 0 13.5C0 13.7387 0.0948211 13.9676 0.263604 14.1364C0.432387 14.3052 0.661305 14.4 0.9 14.4H3.6C3.83869 14.4 4.06761 14.3052 4.2364 14.1364C4.40518 13.9676 4.5 13.7387 4.5 13.5ZM13.5 22.5C13.2613 22.5 13.0324 22.5948 12.8636 22.7636C12.6948 22.9324 12.6 23.1613 12.6 23.4V26.1C12.6 26.3387 12.6948 26.5676 12.8636 26.7364C13.0324 26.9052 13.2613 27 13.5 27C13.7387 27 13.9676 26.9052 14.1364 26.7364C14.3052 26.5676 14.4 26.3387 14.4 26.1V23.4C14.4 23.1613 14.3052 22.9324 14.1364 22.7636C13.9676 22.5948 13.7387 22.5 13.5 22.5ZM26.1 12.6H23.4C23.1613 12.6 22.9324 12.6948 22.7636 12.8636C22.5948 13.0324 22.5 13.2613 22.5 13.5C22.5 13.7387 22.5948 13.9676 22.7636 14.1364C22.9324 14.3052 23.1613 14.4 23.4 14.4H26.1C26.3387 14.4 26.5676 14.3052 26.7364 14.1364C26.9052 13.9676 27 13.7387 27 13.5C27 13.2613 26.9052 13.0324 26.7364 12.8636C26.5676 12.6948 26.3387 12.6 26.1 12.6Z" fill="#F8F8F8"/>
</svg>
