<svg width="20" height="20" viewBox="0 0 20 20" fill="none" xmlns="http://www.w3.org/2000/svg">
<g opacity="0.7">
<path d="M13.0952 11.9165L14.5092 10.5019L12.3879 8.38052L14.7452 6.02386L13.3305 4.60919L10.9739 6.96652L8.85252 4.84519L7.43786 6.25919L13.0952 11.9165ZM10.9739 5.08119L12.8592 3.19519C12.9842 3.07021 13.1537 3 13.3305 3C13.5073 3 13.6768 3.07021 13.8019 3.19519L16.1592 5.55252C16.2842 5.67754 16.3544 5.84708 16.3544 6.02386C16.3544 6.20063 16.2842 6.37017 16.1592 6.49519L14.2732 8.38052L15.9232 10.0305C16.0482 10.1555 16.1184 10.3251 16.1184 10.5019C16.1184 10.6786 16.0482 10.8482 15.9232 10.9732L10.7379 16.1592C10.6128 16.2842 10.4433 16.3544 10.2665 16.3544C10.0897 16.3544 9.92021 16.2842 9.79519 16.1592L3.19519 9.55919C3.07021 9.43417 3 9.26463 3 9.08786C3 8.91108 3.07021 8.74154 3.19519 8.61652L8.38119 3.43119C8.50621 3.30621 8.67575 3.236 8.85252 3.236C9.0293 3.236 9.19884 3.30621 9.32386 3.43119L10.9739 5.08119Z" fill="#2E2E2E"/>
</g>
</svg>
