<svg width="22" height="33" viewBox="0 0 22 33" fill="none" xmlns="http://www.w3.org/2000/svg">
<path d="M10.6069 19.6053C10.2925 21.8042 6.98656 22.6263 5.37287 22.7625L4.77406 23.3148L5.0117 22.3798C7.00414 13.0971 16.1538 3.59214 20.4796 -1.56258e-05L18.4867 3.03122L17.9291 4.02279C17.706 4.41942 17.3059 5.47247 17.1338 5.94941L16.0597 8.37182C15.8083 9.16044 14.9235 11.5197 13.395 14.6475C11.9023 17.7023 8.37803 20.4912 6.68839 21.5826C6.75021 21.5882 6.81746 21.5944 6.89048 21.6014C8.20339 21.7267 9.91512 20.3229 10.6069 19.6053Z" fill="#2E2E2E"/>
<path d="M2.75676 31.6687C2.72777 31.8452 2.70093 32.0126 2.67641 32.1695C2.68784 32.036 2.71542 31.8671 2.75676 31.6687C3.20861 28.918 4.18346 23.9797 5.05283 22.8191L5.69282 22.706L5.69282 22.706C4.91126 24.8713 3.16461 29.7103 2.75676 31.6687Z" fill="#2E2E2E"/>
</svg>
