<svg width="25" height="25" viewBox="0 0 25 25" fill="none" xmlns="http://www.w3.org/2000/svg">
<path d="M11.6187 13.3813C11.875 13.625 11.875 14.025 11.6187 14.2688C11.375 14.5125 10.975 14.5125 10.7312 14.2688C9.5125 13.05 9.5125 11.0688 10.7312 9.85001L12.9437 7.63751C14.1625 6.41876 16.1437 6.41876 17.3625 7.63751C18.5812 8.85626 18.5812 10.8375 17.3625 12.0563L16.4312 12.9875C16.4375 12.475 16.3562 11.9625 16.1812 11.475L16.475 11.175C17.2125 10.4438 17.2125 9.25626 16.475 8.52501C15.7437 7.78751 14.5562 7.78751 13.825 8.52501L11.6187 10.7313C10.8812 11.4625 10.8812 12.65 11.6187 13.3813ZM13.3812 10.7313C13.625 10.4875 14.025 10.4875 14.2687 10.7313C15.4875 11.95 15.4875 13.9313 14.2687 15.15L12.0562 17.3625C10.8375 18.5813 8.85625 18.5813 7.6375 17.3625C6.41875 16.1438 6.41875 14.1625 7.6375 12.9438L8.56875 12.0125C8.5625 12.525 8.64375 13.0375 8.81875 13.5313L8.525 13.825C7.7875 14.5563 7.7875 15.7438 8.525 16.475C9.25625 17.2125 10.4437 17.2125 11.175 16.475L13.3812 14.2688C14.1187 13.5375 14.1187 12.35 13.3812 11.6188C13.125 11.375 13.125 10.975 13.3812 10.7313Z" fill="#F8F8F8"/>
</svg>
