<svg width="25" height="25" viewBox="0 0 25 25" fill="none" xmlns="http://www.w3.org/2000/svg">
<path d="M13.7 9.23L15.77 11.3L10.8114 16.2536C10.3603 16.7048 9.80518 17.0382 9.19499 17.2245L7.50155 17.7415C7.39871 17.7729 7.28988 17.7149 7.25848 17.6121C7.24717 17.575 7.24717 17.5354 7.25848 17.4984L7.77541 15.805C7.96173 15.1947 8.29516 14.6395 8.74639 14.1883L13.7 9.23ZM16.6662 7.50632L17.4936 8.33385C17.8141 8.65426 17.8341 9.16133 17.5538 9.50509L17.4936 9.57157L16.61 10.4525L14.5475 8.39L15.4285 7.5063C15.7703 7.16456 16.3244 7.16457 16.6662 7.50632Z" fill="#F8F8F8"/>
</svg>
