<svg width="25" height="25" viewBox="0 0 25 25" fill="none" xmlns="http://www.w3.org/2000/svg">
<ellipse cx="8.21429" cy="13" rx="3.21429" ry="3" fill="#F8F8F8"/>
<path d="M10.7378 8.81556C11.1882 8.60537 11.3829 8.06983 11.1727 7.6194C10.9625 7.16898 10.427 6.97424 9.97656 7.18444L10.7378 8.81556ZM6.86477 13.425L7.89097 11.5094L6.3043 10.6594L5.27811 12.575L6.86477 13.425ZM7.89097 11.5094C8.52408 10.3276 9.52281 9.38254 10.7378 8.81556L9.97656 7.18444C8.40933 7.91581 7.121 9.13493 6.3043 10.6594L7.89097 11.5094Z" fill="#F8F8F8"/>
<ellipse cx="16.7857" cy="13" rx="3.21429" ry="3" fill="#F8F8F8"/>
<path d="M19.3091 8.81556C19.7596 8.60537 19.9543 8.06983 19.7441 7.6194C19.5339 7.16898 18.9984 6.97424 18.5479 7.18444L19.3091 8.81556ZM15.4362 13.425L16.4623 11.5094L14.8757 10.6594L13.8495 12.575L15.4362 13.425ZM16.4623 11.5094C17.0955 10.3276 18.0942 9.38254 19.3091 8.81556L18.5479 7.18444C16.9807 7.91581 15.6924 9.13493 14.8757 10.6594L16.4623 11.5094Z" fill="#F8F8F8"/>
</svg>
