<svg width="25" height="25" viewBox="0 0 25 25" fill="none" xmlns="http://www.w3.org/2000/svg">
<path d="M4.16667 13.5417C4.73958 13.5417 5.20833 13.0729 5.20833 12.5C5.20833 11.9271 4.73958 11.4583 4.16667 11.4583C3.59375 11.4583 3.125 11.9271 3.125 12.5C3.125 13.0729 3.59375 13.5417 4.16667 13.5417ZM4.16667 17.7083C4.73958 17.7083 5.20833 17.2396 5.20833 16.6667C5.20833 16.0937 4.73958 15.625 4.16667 15.625C3.59375 15.625 3.125 16.0937 3.125 16.6667C3.125 17.2396 3.59375 17.7083 4.16667 17.7083ZM4.16667 9.37499C4.73958 9.37499 5.20833 8.90624 5.20833 8.33332C5.20833 7.76041 4.73958 7.29166 4.16667 7.29166C3.59375 7.29166 3.125 7.76041 3.125 8.33332C3.125 8.90624 3.59375 9.37499 4.16667 9.37499ZM8.33333 13.5417H20.8333C21.4062 13.5417 21.875 13.0729 21.875 12.5C21.875 11.9271 21.4062 11.4583 20.8333 11.4583H8.33333C7.76042 11.4583 7.29167 11.9271 7.29167 12.5C7.29167 13.0729 7.76042 13.5417 8.33333 13.5417ZM8.33333 17.7083H20.8333C21.4062 17.7083 21.875 17.2396 21.875 16.6667C21.875 16.0937 21.4062 15.625 20.8333 15.625H8.33333C7.76042 15.625 7.29167 16.0937 7.29167 16.6667C7.29167 17.2396 7.76042 17.7083 8.33333 17.7083ZM7.29167 8.33332C7.29167 8.90624 7.76042 9.37499 8.33333 9.37499H20.8333C21.4062 9.37499 21.875 8.90624 21.875 8.33332C21.875 7.76041 21.4062 7.29166 20.8333 7.29166H8.33333C7.76042 7.29166 7.29167 7.76041 7.29167 8.33332ZM4.16667 13.5417C4.73958 13.5417 5.20833 13.0729 5.20833 12.5C5.20833 11.9271 4.73958 11.4583 4.16667 11.4583C3.59375 11.4583 3.125 11.9271 3.125 12.5C3.125 13.0729 3.59375 13.5417 4.16667 13.5417ZM4.16667 17.7083C4.73958 17.7083 5.20833 17.2396 5.20833 16.6667C5.20833 16.0937 4.73958 15.625 4.16667 15.625C3.59375 15.625 3.125 16.0937 3.125 16.6667C3.125 17.2396 3.59375 17.7083 4.16667 17.7083ZM4.16667 9.37499C4.73958 9.37499 5.20833 8.90624 5.20833 8.33332C5.20833 7.76041 4.73958 7.29166 4.16667 7.29166C3.59375 7.29166 3.125 7.76041 3.125 8.33332C3.125 8.90624 3.59375 9.37499 4.16667 9.37499ZM8.33333 13.5417H20.8333C21.4062 13.5417 21.875 13.0729 21.875 12.5C21.875 11.9271 21.4062 11.4583 20.8333 11.4583H8.33333C7.76042 11.4583 7.29167 11.9271 7.29167 12.5C7.29167 13.0729 7.76042 13.5417 8.33333 13.5417ZM8.33333 17.7083H20.8333C21.4062 17.7083 21.875 17.2396 21.875 16.6667C21.875 16.0937 21.4062 15.625 20.8333 15.625H8.33333C7.76042 15.625 7.29167 16.0937 7.29167 16.6667C7.29167 17.2396 7.76042 17.7083 8.33333 17.7083ZM7.29167 8.33332C7.29167 8.90624 7.76042 9.37499 8.33333 9.37499H20.8333C21.4062 9.37499 21.875 8.90624 21.875 8.33332C21.875 7.76041 21.4062 7.29166 20.8333 7.29166H8.33333C7.76042 7.29166 7.29167 7.76041 7.29167 8.33332Z" fill="#F8F8F8"/>
</svg>
